<svg width="162" height="24" viewBox="0 0 162 24" fill="none" xmlns="http://www.w3.org/2000/svg">
<path d="M160.692 2.53925C160.367 2.24947 159.937 2.09141 159.493 2.09832C159.041 2.0886 158.604 2.24668 158.272 2.53925C158.103 2.6925 157.971 2.87878 157.884 3.08539C157.797 3.29199 157.757 3.51408 157.768 3.73654C157.757 3.95751 157.796 4.17817 157.883 4.38319C157.97 4.5882 158.103 4.77264 158.272 4.92364C158.604 5.2162 159.041 5.37431 159.493 5.36458C159.937 5.3715 160.367 5.21343 160.692 4.92364C160.862 4.77295 160.995 4.58866 161.083 4.38365C161.17 4.17859 161.21 3.95778 161.199 3.73654C161.21 3.51383 161.17 3.29158 161.082 3.08496C160.995 2.87833 160.862 2.6922 160.692 2.53925Z" fill="#10405A"/>
<path d="M160.872 7.19141H158.088V18.7043H160.872V7.19141Z" fill="#10405A"/>
<path d="M146.106 18.7076H148.895V9.41589C149.08 9.38878 149.364 9.35148 149.747 9.30738C150.114 9.2637 150.484 9.24106 150.854 9.23956C151.264 9.23037 151.673 9.29358 152.06 9.42608C152.379 9.54346 152.653 9.75182 152.844 10.0229C153.059 10.3433 153.204 10.7021 153.27 11.0776C153.362 11.5973 153.405 12.1239 153.398 12.6511V18.7076H156.183V12.2339C156.188 11.5119 156.107 10.7917 155.941 10.0873C155.801 9.47706 155.517 8.90535 155.111 8.4155C154.693 7.93153 154.15 7.55988 153.536 7.33714C152.742 7.05646 151.898 6.92519 151.052 6.95053C150.102 6.94568 149.153 7.01259 148.214 7.15062C147.507 7.25217 146.807 7.39143 146.117 7.56772L146.106 18.7076Z" fill="#10405A"/>
<path d="M142.838 8.42913C141.912 7.4457 140.62 6.95289 138.964 6.95062C138.253 6.95162 137.548 7.08285 136.889 7.3372C136.213 7.59235 135.601 7.98323 135.097 8.48342C134.545 9.03102 134.117 9.68075 133.837 10.3926C133.506 11.2423 133.346 12.1445 133.366 13.0513C133.354 13.8554 133.473 14.6563 133.721 15.4251C133.947 16.128 134.332 16.775 134.849 17.3207C135.385 17.8754 136.048 18.3048 136.786 18.5754C137.667 18.8939 138.604 19.047 139.546 19.0265C139.955 19.0256 140.364 19.004 140.77 18.962C141.167 18.918 141.536 18.8637 141.884 18.7925C142.195 18.7385 142.502 18.666 142.803 18.5754C143.022 18.5167 143.235 18.4383 143.438 18.3414L143.083 16.1643C142.657 16.3285 142.215 16.4545 141.764 16.5408C141.153 16.6622 140.531 16.7202 139.908 16.7137C138.758 16.7137 137.875 16.4627 137.272 15.9541C136.959 15.6822 136.706 15.353 136.529 14.986C136.352 14.619 136.253 14.2217 136.24 13.8177H144.187C144.204 13.6753 144.219 13.5057 144.226 13.3226C144.233 13.1395 144.226 12.9834 144.226 12.8309C144.24 10.881 143.775 9.40918 142.838 8.42913ZM136.268 11.8745C136.316 11.536 136.4 11.2031 136.52 10.881C136.637 10.5687 136.814 10.2801 137.041 10.0298C137.277 9.75534 137.574 9.53487 137.91 9.38461C138.247 9.23439 138.614 9.15818 138.986 9.16164C139.352 9.15468 139.716 9.22531 140.05 9.3685C140.345 9.50273 140.603 9.69997 140.805 9.94498C141.025 10.1959 141.186 10.4883 141.277 10.8029C141.388 11.141 141.443 11.4933 141.441 11.8474L136.268 11.8745Z" fill="#10405A"/>
<path d="M125.656 16.6222C125.154 16.4948 124.659 16.3385 124.177 16.1542L123.694 18.3754C124.139 18.5364 124.592 18.6734 125.053 18.7857C125.891 18.9727 126.751 19.0571 127.611 19.0367C129.191 19.0367 130.408 18.7541 131.262 18.1888C131.681 17.9118 132.019 17.5365 132.242 17.0988C132.466 16.6612 132.568 16.1759 132.539 15.6896C132.549 15.2416 132.479 14.7954 132.33 14.3704C132.191 14.0007 131.967 13.6657 131.674 13.3904C131.338 13.0792 130.954 12.8195 130.534 12.6206C129.988 12.3586 129.427 12.1265 128.853 11.9254C128.506 11.8133 128.166 11.6831 127.835 11.5355C127.598 11.4327 127.373 11.3065 127.164 11.159C127.011 11.0547 126.889 10.9145 126.809 10.7521C126.736 10.5931 126.699 10.4207 126.703 10.2468C126.696 10.0714 126.743 9.89789 126.837 9.74736C126.932 9.59686 127.07 9.47582 127.235 9.39904C127.664 9.19964 128.138 9.10525 128.615 9.12436C129.174 9.1164 129.731 9.17219 130.275 9.29054C130.678 9.37689 131.071 9.49836 131.45 9.65339L131.957 7.49662C131.484 7.33821 130.999 7.21463 130.506 7.12697C129.838 7.0017 129.158 6.93922 128.477 6.94045C127.079 6.94045 125.975 7.24566 125.163 7.85605C124.764 8.14831 124.445 8.52792 124.232 8.9629C124.019 9.39789 123.918 9.87547 123.939 10.3553C123.924 10.826 124.015 11.2942 124.205 11.7288C124.374 12.0941 124.622 12.4212 124.932 12.6885C125.261 12.9625 125.629 13.1908 126.025 13.3667C126.479 13.5774 126.945 13.7653 127.42 13.9296C128.044 14.1289 128.64 14.4023 129.194 14.7435C129.359 14.8455 129.495 14.9856 129.589 15.1509C129.683 15.3162 129.733 15.5014 129.733 15.6896C129.748 15.8657 129.708 16.042 129.618 16.1965C129.528 16.351 129.393 16.4767 129.229 16.5577C128.718 16.7576 128.166 16.8445 127.615 16.8121C126.956 16.8292 126.298 16.7654 125.656 16.6222Z" fill="#10405A"/>
<path d="M120.913 8.39513C119.983 7.40828 118.695 6.91659 117.038 6.91659C116.324 6.91466 115.615 7.04597 114.952 7.30316C114.284 7.56093 113.679 7.95027 113.178 8.446C112.633 8.99595 112.207 9.64371 111.926 10.3518C111.596 11.203 111.437 12.1062 111.458 13.0138C111.448 13.8178 111.567 14.6185 111.813 15.3876C112.038 16.0949 112.42 16.7472 112.934 17.3003C113.468 17.8565 114.132 18.2851 114.871 18.5516C115.753 18.8693 116.692 19.0201 117.634 18.9958C118.043 18.9958 118.452 18.9755 118.858 18.9348C119.256 18.8907 119.625 18.8364 119.969 18.7652C120.281 18.7106 120.589 18.637 120.891 18.5448C121.11 18.4892 121.321 18.4119 121.523 18.3142L121.168 16.1371C120.74 16.2999 120.297 16.4248 119.845 16.5101C119.236 16.6345 118.615 16.6936 117.993 16.6864C116.836 16.6864 115.96 16.4321 115.357 15.9268C115.043 15.6534 114.791 15.3224 114.615 14.9535C114.439 14.5847 114.342 14.1856 114.331 13.7803H122.261C122.261 13.6378 122.289 13.4683 122.296 13.2851C122.304 13.102 122.296 12.946 122.296 12.7934C122.304 10.8571 121.842 9.37514 120.913 8.39513ZM114.342 11.8235C114.388 11.486 114.471 11.154 114.591 10.8333C114.709 10.5203 114.887 10.2306 115.115 9.97876C115.338 9.7233 115.617 9.51729 115.931 9.37514C116.282 9.21154 116.67 9.13129 117.06 9.14117C117.426 9.13479 117.789 9.20419 118.124 9.34465C118.419 9.48111 118.679 9.67928 118.883 9.92451C119.1 10.177 119.261 10.4689 119.355 10.7825C119.465 11.1195 119.519 11.4707 119.515 11.8235H114.342Z" fill="#10405A"/>
<path d="M111.011 7.34739C110.872 7.30329 110.688 7.25584 110.457 7.20159C110.227 7.1473 109.989 7.10662 109.748 7.06932C109.507 7.03203 109.255 7.00488 109.01 6.98116C108.765 6.9574 108.549 6.95063 108.364 6.95063C107.463 6.94336 106.564 7.02749 105.682 7.20159C104.998 7.33832 104.325 7.51845 103.666 7.74077V18.7043H106.438V9.48043C106.67 9.41534 106.907 9.36435 107.147 9.32782C107.47 9.27142 107.798 9.24189 108.126 9.23966C108.602 9.23454 109.078 9.2743 109.545 9.35835C109.869 9.4188 110.189 9.49693 110.503 9.59232L111.011 7.34739Z" fill="#10405A"/>
<path d="M101.503 9.60261C101.361 9.05101 101.074 8.54316 100.669 8.1276C100.264 7.71203 99.7547 7.40259 99.1894 7.2288C98.4392 6.98991 97.6522 6.87521 96.8619 6.88971C96.1352 6.88483 95.4097 6.94273 94.6938 7.06266C94.1729 7.14067 93.6584 7.25398 93.1542 7.40174L93.509 9.55855C93.9389 9.42009 94.3803 9.31797 94.8289 9.25333C95.4149 9.15936 96.0085 9.1151 96.6029 9.12106C97.0057 9.10845 97.4078 9.16824 97.7877 9.29739C98.0805 9.40063 98.3431 9.5692 98.5541 9.78913C98.7456 10.0023 98.8815 10.2556 98.9514 10.5284C99.0336 10.8156 99.0741 11.1123 99.0722 11.4101V11.8747C98.7154 11.7871 98.3526 11.7237 97.9863 11.6848C97.6661 11.648 97.3439 11.6288 97.0212 11.6271C96.3836 11.6252 95.7471 11.6889 95.1233 11.817C94.5523 11.9251 94.0076 12.1332 93.5162 12.4308C93.0525 12.7166 92.6711 13.1082 92.4057 13.5702C92.1184 14.0848 91.9778 14.6625 91.9976 15.2455C91.9758 15.8436 92.097 16.4387 92.3524 16.9851C92.5769 17.4373 92.9162 17.8289 93.3386 18.1245C93.7982 18.4363 94.3199 18.6545 94.8714 18.7655C95.5222 18.9041 96.1877 18.9701 96.8548 18.9622C97.8353 18.9706 98.8147 18.9071 99.7853 18.7723C100.655 18.6536 101.304 18.5484 101.74 18.4569V11.461C101.749 10.8341 101.669 10.209 101.503 9.60261ZM99.0507 16.7003C98.4027 16.805 97.7459 16.8493 97.0888 16.8325C96.5047 16.8624 95.9235 16.7356 95.4105 16.4663C94.9989 16.2289 94.7828 15.7881 94.7828 15.1573C94.774 14.8735 94.8571 14.5941 95.0204 14.357C95.1733 14.1423 95.3843 13.9712 95.6306 13.8619C95.898 13.74 96.1845 13.6599 96.4785 13.6245C96.788 13.5757 97.1015 13.5519 97.4154 13.5533C97.7384 13.5493 98.0614 13.5731 98.3804 13.6245C98.6065 13.6519 98.8306 13.6938 99.0507 13.75V16.7003Z" fill="#10405A"/>
<path d="M84.4905 15.2386C84.9089 16.4616 85.3181 17.6169 85.7178 18.7043H87.9884C88.3126 18.0261 88.6424 17.2552 88.9785 16.3916C89.3333 15.5268 89.6559 14.6044 89.9968 13.621C90.3373 12.6375 90.6707 11.6032 91.0112 10.5147C91.3521 9.42614 91.6782 8.32064 92.0013 7.19141H89.1239C88.9869 7.80856 88.8248 8.47324 88.6376 9.18537C88.4533 9.89412 88.2546 10.6232 88.0452 11.3625C87.8358 12.1017 87.6265 12.8274 87.4103 13.5328C87.1938 14.2382 86.9844 14.8893 86.7858 15.4691C86.5494 14.7909 86.3233 14.0935 86.1083 13.3768C85.893 12.6602 85.686 11.9413 85.4873 11.2201C85.2958 10.5011 85.1158 9.8003 84.9478 9.11755C84.7801 8.43479 84.6264 7.79276 84.4869 7.19141H82.3581C82.2187 7.79503 82.0601 8.43706 81.8825 9.11755C81.7053 9.79803 81.517 10.4989 81.3183 11.2201C81.1161 11.939 80.9067 12.6579 80.6834 13.3768C80.4598 14.0958 80.2329 14.7943 80.002 15.4691C79.7859 14.8825 79.5694 14.2348 79.3528 13.5328C79.1367 12.8309 78.9309 12.1051 78.7287 11.3625C78.5264 10.6198 78.3345 9.89412 78.1502 9.18537C77.9658 8.47663 77.7954 7.80856 77.6643 7.19141H74.7158C75.04 8.32175 75.3698 9.42953 75.7055 10.5147C76.0416 11.5999 76.3798 12.6353 76.7203 13.621C77.0751 14.6044 77.3981 15.5268 77.7386 16.3916C78.0791 17.2563 78.3985 18.0295 78.7072 18.7043H80.9957C81.393 17.6191 81.7951 16.4639 82.202 15.2386C82.6088 14.0132 82.9882 12.754 83.3407 11.4608C83.6859 12.754 84.0693 14.0132 84.4905 15.2386Z" fill="#10405A"/>
<path d="M66.3957 14.1263C66.3866 14.8097 66.4557 15.492 66.6015 16.161C66.7172 16.7115 66.9595 17.2304 67.3111 17.6802C67.6659 18.1203 68.1411 18.4582 68.6839 18.6569C69.3732 18.8982 70.1039 19.0133 70.8377 18.996C71.4599 19.0055 72.0801 18.9348 72.6824 18.7858C73.1135 18.6762 73.5366 18.5403 73.949 18.3788L73.4878 16.2661C73.1826 16.3772 72.8711 16.4723 72.5549 16.551C72.115 16.6614 71.6613 16.7139 71.2068 16.707C70.4722 16.707 69.9469 16.5103 69.6422 16.1135C69.337 15.7168 69.1845 15.0284 69.1845 14.1026V9.41605H73.4667V7.19146H69.1845V3.71216L66.3993 4.15301L66.3957 14.1263Z" fill="#10405A"/>
<path d="M58.5399 2.88843C57.7286 3.7317 57.3217 4.89484 57.3193 6.37793V18.7047H60.1081V9.41638H64.4825V7.19179H60.1009V6.42199C60.0977 6.07983 60.1359 5.73847 60.2146 5.40465C60.2813 5.11262 60.4144 4.83821 60.6047 4.60097C60.8002 4.36866 61.0541 4.18775 61.3429 4.07533C61.7017 3.94048 62.0855 3.87589 62.4709 3.88542C62.8467 3.88285 63.2214 3.92041 63.5885 3.99735C63.9024 4.05998 64.2083 4.15549 64.5004 4.28219L65.0292 2.08134C64.6664 1.96141 64.2969 1.86177 63.9223 1.78292C63.3629 1.66749 62.7915 1.61288 62.219 1.62015C60.5777 1.62241 59.3512 2.04517 58.5399 2.88843Z" fill="#10405A"/>
<path d="M54.9571 10.4605C54.6965 9.75932 54.2936 9.11406 53.7723 8.5615C53.2614 8.02797 52.634 7.60879 51.9343 7.33391C51.1945 7.04196 50.4003 6.89658 49.5997 6.90662C48.8015 6.89589 48.0097 7.04131 47.2723 7.33391C46.577 7.61067 45.9532 8.0297 45.445 8.5615C44.9166 9.11156 44.509 9.75729 44.2459 10.4605C43.9523 11.2565 43.8073 12.0955 43.8168 12.9395C43.8085 13.7855 43.9535 14.6265 44.2459 15.4252C44.5058 16.1319 44.9087 16.7829 45.4311 17.3412C45.9393 17.8703 46.5599 18.29 47.2512 18.5722C47.9942 18.8696 48.7944 19.014 49.5997 18.996C50.4095 19.0088 51.2132 18.8598 51.959 18.5586C52.6547 18.2767 53.28 17.8572 53.7934 17.3276C54.3166 16.772 54.7147 16.12 54.9642 15.4116C55.2527 14.6124 55.3945 13.7714 55.383 12.9259C55.3917 12.0867 55.2479 11.2525 54.9571 10.4605ZM51.7639 15.6863C51.5104 16.0014 51.1846 16.2567 50.8115 16.4324C50.4385 16.6081 50.028 16.6994 49.612 16.6994C49.1965 16.6994 48.786 16.6081 48.413 16.4324C48.0399 16.2567 47.7137 16.0014 47.4602 15.6863C46.9461 15.0081 46.687 14.0958 46.687 12.9395C46.687 11.7831 46.9461 10.8844 47.4602 10.2266C47.7153 9.91316 48.0415 9.65951 48.4141 9.48506C48.7872 9.31058 49.1969 9.21987 49.612 9.21987C50.0272 9.21987 50.4373 9.31058 50.8099 9.48506C51.183 9.65951 51.5092 9.91316 51.7639 10.2266C52.2784 10.8878 52.5375 11.7967 52.5375 12.9395C52.5375 14.0823 52.2677 15.0183 51.7532 15.6863H51.7639Z" fill="#10405A"/>
<path d="M35.6031 16.4933C35.0982 16.3684 34.6018 16.2144 34.1165 16.0321L33.634 18.2533C34.0783 18.4132 34.532 18.5479 34.9928 18.6568C35.8304 18.8469 36.6903 18.9324 37.5508 18.9112C39.1308 18.9112 40.3465 18.6286 41.198 18.0634C41.6183 17.787 41.9564 17.4118 42.1809 16.9741C42.4054 16.5363 42.5079 16.0507 42.4789 15.5641C42.4888 15.1162 42.4181 14.6699 42.2695 14.2449C42.1309 13.8752 41.9064 13.5401 41.6132 13.2649C41.2774 12.9537 40.8932 12.694 40.4745 12.4951C39.9282 12.2331 39.3665 12.001 38.7926 11.8C38.3953 11.6677 38.0546 11.5388 37.7779 11.4167C37.5427 11.3133 37.3193 11.1872 37.1109 11.0403C36.959 10.9351 36.837 10.7952 36.7561 10.6334C36.6824 10.4744 36.6461 10.3019 36.6497 10.1281C36.6424 9.95259 36.6889 9.77892 36.7834 9.62831C36.878 9.4777 37.0165 9.35678 37.1819 9.2803C37.611 9.08094 38.0853 8.98654 38.562 9.00565C39.1204 8.9977 39.6779 9.05345 40.2226 9.1718C40.6247 9.25819 41.0176 9.37962 41.3966 9.53465L41.9004 7.3745C41.4256 7.22039 40.9393 7.10024 40.4459 7.01503C39.7788 6.88961 39.1001 6.82713 38.4201 6.82851C37.0222 6.82851 35.9165 7.13373 35.1028 7.74412C34.7054 8.03657 34.3872 8.41583 34.1748 8.85012C33.9624 9.28441 33.8622 9.76104 33.8823 10.24C33.8678 10.7118 33.9586 11.1811 34.1484 11.6168C34.3121 11.9797 34.5538 12.3055 34.858 12.5731C35.1872 12.8471 35.555 13.0754 35.9508 13.2514C36.4043 13.4624 36.8698 13.6492 37.3451 13.8109C37.9693 14.0124 38.5652 14.2869 39.119 14.6282C39.295 14.7292 39.4403 14.8725 39.5405 15.0438C39.6407 15.2152 39.6924 15.4085 39.6903 15.6048C39.7049 15.7812 39.6645 15.9579 39.5743 16.1124C39.484 16.2669 39.3478 16.3924 39.1829 16.4729C38.6731 16.6732 38.1223 16.7601 37.5721 16.7272C36.908 16.7309 36.2461 16.6522 35.6031 16.4933Z" fill="#10405A"/>
<path d="M28.1915 14.1434V17.3276C28.1915 19.8812 27.2336 21.397 26.5523 22.0753C25.8144 22.8349 24.3952 23.9912 21.3973 23.9912H18.3744V18.6943H20.3861C20.6475 18.7085 20.9094 18.6733 21.1565 18.5907C21.4037 18.5081 21.6314 18.3796 21.8265 18.2127C22.024 18.028 22.1754 17.8031 22.2694 17.5547C22.3634 17.3064 22.3975 17.041 22.3694 16.7783C22.3694 16.2899 22.3694 14.9844 22.3871 14.1434H28.1915Z" fill="#7BC794"/>
<path d="M9.82061 0.00488281V5.3222H7.8054C7.54281 5.30721 7.27971 5.34208 7.03127 5.42471C6.78284 5.50734 6.55398 5.63618 6.35783 5.80375C6.16017 5.98819 6.00887 6.21312 5.91546 6.46162C5.82205 6.71012 5.78892 6.97566 5.81856 7.23819C5.81856 7.71974 5.81856 9.0253 5.79373 9.85954H0V6.68205C0 4.13191 0.957936 2.61267 1.63913 1.93444C2.3771 1.16804 3.79626 0.00488281 6.79777 0.00488281H9.82061Z" fill="#7BC794"/>
<path d="M22.4153 0.00553964C22.4153 0.00553964 19.4989 -0.116542 17.4482 0.785502C15.3975 1.68754 14.1238 2.71845 13.1269 4.80737C12.1015 6.95399 11.101 11.61 9.77056 14.4009C8.44008 17.1919 5.83594 16.7985 5.83594 16.7985V23.9945C5.83594 23.9945 8.75586 24.1165 10.803 23.2145C12.8501 22.3124 13.9003 21.1968 14.9008 19.196C16.281 16.4322 16.9267 12.3866 18.2536 9.60587C18.5886 8.83295 19.1737 8.18288 19.9232 7.75082C20.6728 7.31876 21.5473 7.12747 22.4188 7.20495L22.4153 0.00553964Z" fill="#00AFAA"/>
</svg>
